<?xml version="1.0" encoding="UTF-8"?>
<svg width="1617px" height="600px" viewBox="0 0 1617 600" version="1.1" xmlns="http://www.w3.org/2000/svg" xmlns:xlink="http://www.w3.org/1999/xlink">
    <!-- Generator: Sketch 42 (36781) - http://www.bohemiancoding.com/sketch -->
    <title>Desktop Copy</title>
    <desc>Created with Sketch.</desc>
    <defs></defs>
    <g id="Page-1" stroke="none" stroke-width="1" fill="none" fill-rule="evenodd">
        <g id="Desktop-Copy" fill-rule="nonzero" fill="#FBAF30">
            <g id="logo" transform="translate(0.000000, 73.000000)">
                <g id="Page-1">
                    <g id="logo">
                        <g id="Page-1">
                            <g id="Desktop">
                                <g id="LOGO">
                                    <path d="M91.8205805,339.138083 C88.6543535,335.092348 84.6086191,331.926121 79.507476,329.639402 C74.4063322,327.352682 69.6569918,326.121372 64.907652,326.121372 C62.4450311,326.121372 59.9824096,326.297273 57.5197889,326.824978 C55.057168,327.176781 52.7704485,328.056288 50.8355321,329.287599 C48.9006156,330.518909 47.1416007,332.102023 45.9102902,334.036939 C44.5030783,335.971856 43.7994723,338.434477 43.7994723,341.424802 C43.7994723,344.063324 44.3271768,346.174143 45.3825858,347.757256 C46.4379947,349.516271 48.0211082,350.923483 50.1319261,352.154793 C52.2427441,353.386104 54.705365,354.617414 57.5197889,355.672823 C60.3342129,356.728232 63.5004398,357.783641 67.1943709,359.014952 C72.2955146,360.773967 77.5725592,362.532981 83.201407,364.6438 C88.8302549,366.754617 93.7554967,369.39314 98.3289357,372.91117 C102.902375,376.253298 106.596306,380.650836 109.586631,385.576078 C112.576957,390.677221 113.984169,396.833773 113.984169,404.397537 C113.984169,413.016711 112.401056,420.580475 109.234829,426.912929 C106.068602,433.245383 101.671064,438.522427 96.3940195,442.568162 C90.941073,446.613896 84.7845205,449.780123 77.9243625,451.71504 C70.8883025,453.649956 63.8522426,454.705365 56.4643799,454.705365 C45.7343888,454.705365 35.180299,452.770448 25.1539138,449.076517 C15.1275286,445.382586 6.68425682,439.929639 0,432.89358 L23.9226033,408.619173 C27.6165347,413.192612 32.5417766,417.062445 38.5224274,420.052771 C44.5030783,423.043096 50.6596306,424.626209 56.4643799,424.626209 C59.1029021,424.626209 61.741425,424.274406 64.3799473,423.746702 C67.0184695,423.218997 69.1292877,422.33949 71.0642039,420.932278 C72.9991207,419.700967 74.5822342,417.941953 75.637643,415.831134 C76.6930518,413.720317 77.3966578,411.081794 77.3966578,408.091469 C77.3966578,405.277045 76.6930518,402.814424 75.2858396,400.879508 C73.8786281,398.944591 71.76781,397.009675 69.1292877,395.426561 C66.4907654,393.843448 63.1486365,392.260334 59.2788041,391.029024 C55.408971,389.621812 51.0114336,388.2146 45.9102902,386.631486 C41.1609499,385.048373 36.4116095,383.289358 31.6622691,381.002638 C27.0888302,378.89182 22.8671944,376.077397 19.3491645,372.735268 C15.655233,369.39314 12.8408091,365.347406 10.5540897,360.598065 C8.26737029,355.848725 7.21196133,350.043976 7.21196133,343.183817 C7.21196133,334.740546 8.97097623,327.528584 12.3131047,321.723834 C15.655233,315.743184 20.2286719,310.817942 25.6816183,306.948109 C31.3104662,303.078276 37.4670185,300.263852 44.5030783,298.504838 C51.5391381,296.745822 58.5751979,295.866315 65.6112574,295.866315 C74.2304309,295.866315 82.8496043,297.449428 91.8205805,300.615655 C100.791557,303.781882 108.531223,308.355321 115.215479,314.511874 L91.9964818,338.962181 L91.8205805,339.138083 Z" id="Shape"></path>
                                    <path d="M206.156552,450.835532 L206.156552,436.059806 L205.80475,436.059806 C204.573439,438.522427 202.814424,440.809147 200.703606,442.919965 C198.592788,445.030783 196.306069,446.965699 193.491645,448.548813 C190.677221,450.131926 187.686895,451.363236 184.344767,452.418646 C181.002639,453.474054 177.484608,453.825858 173.790677,453.825858 C166.754617,453.825858 160.598065,452.594547 155.848725,449.956025 C150.923483,447.317502 146.877748,444.151275 143.887423,440.105541 C140.897098,436.059806 138.610378,431.486368 137.203166,426.209323 C135.795954,420.932278 135.092348,415.655233 135.092348,410.378188 L135.092348,344.76693 L170.272647,344.76693 L170.272647,402.28672 C170.272647,405.277045 170.448549,408.091469 170.976253,410.905893 C171.328056,413.544415 172.207564,416.007036 173.438874,418.117854 C174.670185,420.228672 176.253298,421.987687 178.188214,423.218997 C180.123131,424.450308 182.761654,424.978012 186.103782,424.978012 C192.260334,424.978012 196.833773,422.691293 200,418.117854 C203.166227,413.544415 204.74934,408.26737 204.74934,402.110818 L204.74934,344.76693 L239.753738,344.76693 L239.753738,451.011434 L205.980651,451.011434 L206.156552,450.835532 Z" id="Shape"></path>
                                    <path d="M336.851363,450.835532 L336.851363,392.788039 C336.851363,389.797713 336.675462,386.98329 336.147757,384.168865 C335.620053,381.530343 334.916447,379.067722 333.685136,376.956904 C332.629727,374.846086 330.870712,373.262972 328.935796,372.031662 C326.824978,370.800352 324.362357,370.272647 321.19613,370.272647 C318.029903,370.272647 315.391381,370.800352 312.92876,372.031662 C310.642041,373.262972 308.707124,374.846086 307.12401,377.132805 C305.540897,379.243624 304.309587,381.706245 303.605981,384.520668 C302.902375,387.335092 302.37467,390.149516 302.37467,393.139842 L302.37467,450.659631 L267.194371,450.659631 L267.194371,344.415128 L301.14336,344.415128 L301.14336,359.190853 L301.495162,359.190853 C302.726473,356.904134 304.485488,354.617414 306.596306,352.506596 C308.707124,350.219877 310.993843,348.460862 313.808268,346.877749 C316.622691,345.294635 319.613017,344.063324 322.955145,343.007916 C326.297273,341.952507 329.639402,341.424802 333.333333,341.424802 C340.369393,341.424802 346.525945,342.656112 351.451187,345.294635 C356.376429,347.933157 360.422164,351.099384 363.58839,355.145119 C366.578716,359.190853 368.865435,363.764292 370.272647,369.041337 C371.67986,374.318382 372.383465,379.595426 372.383465,384.872471 L372.383465,450.483729 L337.203166,450.483729 L336.851363,450.835532 Z" id="Shape"></path>
                                    <path d="M533.509235,339.138083 C530.343008,335.092348 526.297273,331.926121 521.19613,329.639402 C516.094987,327.352682 511.345646,326.121372 506.596306,326.121372 C504.133685,326.121372 501.671064,326.297273 499.208443,326.824978 C496.745822,327.176781 494.459103,328.056288 492.524187,329.287599 C490.58927,330.518909 488.830255,332.102023 487.598944,334.036939 C486.191733,335.971856 485.488127,338.434477 485.488127,341.424802 C485.488127,344.063324 486.015831,346.174143 487.07124,347.757256 C488.126649,349.516271 489.709762,350.923483 491.820581,352.154793 C493.931398,353.386104 496.394019,354.617414 499.208443,355.672823 C502.022867,356.728232 505.189094,357.783641 508.883026,359.014952 C513.984169,360.773967 519.261214,362.532981 524.890062,364.6438 C530.51891,366.754617 535.444151,369.39314 540.01759,372.91117 C544.591029,376.253298 548.284961,380.650836 551.275286,385.576078 C554.265611,390.677221 555.672823,396.833773 555.672823,404.397537 C555.672823,413.016711 554.08971,420.580475 550.923483,426.912929 C547.757256,433.245383 543.359719,438.522427 538.082674,442.568162 C532.629727,446.613896 526.473175,449.780123 519.437115,451.71504 C512.401055,453.649956 505.364995,454.705365 497.977133,454.705365 C487.07124,454.705365 476.693052,452.770448 466.666666,449.076517 C456.640281,445.382586 448.19701,439.929639 441.512753,432.89358 L465.435356,408.619173 C469.129288,413.192612 474.05453,417.062445 480.03518,420.052771 C486.015831,423.043096 492.172383,424.626209 498.153035,424.626209 C500.791557,424.626209 503.430079,424.274406 506.068601,423.746702 C508.707124,423.218997 510.817942,422.33949 512.752859,420.932278 C514.687775,419.700967 516.270888,417.941953 517.326297,415.831134 C518.381706,413.720317 519.085312,411.081794 519.085312,408.091469 C519.085312,405.277045 518.381706,402.814424 516.974494,400.879508 C515.567282,398.944591 513.456465,397.009675 510.817942,395.426561 C508.17942,393.843448 504.837291,392.260334 500.967458,391.029024 C497.097625,389.621812 492.524187,388.2146 487.598944,386.631486 C482.673703,385.048373 478.100264,383.289358 473.350924,381.002638 C468.777485,378.89182 464.555849,376.077397 461.037819,372.735268 C457.343887,369.39314 454.529463,365.347406 452.242744,360.598065 C449.956025,355.848725 448.900615,350.043976 448.900615,343.183817 C448.900615,334.740546 450.659631,327.528584 454.001759,321.723834 C457.343887,315.743184 461.917327,310.817942 467.370272,306.948109 C472.99912,303.078276 479.155673,300.263852 486.191733,298.504838 C493.227792,296.745822 500.263852,295.866315 507.299912,295.866315 C515.919086,295.866315 524.538258,297.449428 533.509235,300.615655 C542.480211,303.781882 550.219877,308.355321 556.904133,314.511874 L533.685137,338.962181 L533.509235,339.138083 Z" id="Shape"></path>
                                    <path d="M651.011432,385.576078 C651.011432,380.123131 649.252418,375.197889 645.734391,371.328056 C642.216357,367.282322 636.939316,365.347406 630.079154,365.347406 C626.737025,365.347406 623.570801,365.87511 620.756379,366.930519 C617.941951,367.985928 615.479332,369.39314 613.368516,371.328056 C611.257693,373.262972 609.49868,375.373791 608.267373,377.836412 C607.036061,380.299032 606.332455,382.937555 606.156551,385.576078 L651.187336,385.576078 L651.011432,385.576078 Z M683.201408,398.944591 L683.201408,403.166227 C683.201408,404.573439 683.201408,405.980651 683.025504,407.211962 L605.980652,407.211962 C606.332455,410.202287 607.211959,412.840809 608.619176,415.30343 C610.202285,417.766051 611.961299,419.876869 614.423924,421.635884 C616.710645,423.394899 619.349162,424.802111 622.339488,425.85752 C625.329814,426.912929 628.320141,427.440633 631.486365,427.440633 C637.115215,427.440633 641.688656,426.385224 645.558486,424.274406 C649.428322,422.163588 652.594547,419.525066 654.881268,416.358839 L679.155674,431.662269 C674.23043,438.87423 667.546172,444.503078 659.454703,448.372911 C651.363234,452.242744 641.864555,454.177661 630.958664,454.177661 C623.043094,454.177661 615.479332,452.94635 608.267373,450.483729 C601.231312,448.021108 594.898857,444.327177 589.621811,439.577837 C584.344767,434.828496 580.123131,429.023747 576.956904,421.987687 C573.966579,414.951627 572.383465,407.03606 572.383465,398.065083 C572.383465,389.445911 573.966579,381.530343 576.781003,374.494283 C579.771328,367.458223 583.817062,361.477573 588.918205,356.552331 C594.019348,351.627089 600,347.933157 607.036061,345.118734 C614.072121,342.480211 621.459984,341.072999 629.551453,341.072999 C637.291119,341.072999 644.503078,342.30431 651.187336,344.942832 C657.695689,347.581355 663.324539,351.451187 668.073879,356.376429 C672.823219,361.301671 676.51715,367.458223 678.97977,374.494283 C681.618293,381.530343 682.849605,389.797713 682.849605,398.768689 L683.201408,398.944591 Z" id="Shape"></path>
                                    <path d="M766.402816,404.573439 L762.005279,404.573439 C758.135443,404.573439 754.265613,404.749341 750.395777,405.101143 C746.525947,405.452946 743.007914,406.156552 740.017588,407.03606 C737.027268,408.091469 734.388744,409.49868 732.453826,411.433597 C730.518908,413.368513 729.4635,415.831134 729.4635,418.997361 C729.4635,420.932278 729.991207,422.691293 730.870711,424.098505 C731.750221,425.505717 732.981533,426.737027 734.388744,427.440633 C735.795955,428.320141 737.37907,428.847845 739.313982,429.199648 C741.2489,429.551451 743.007914,429.727353 744.591029,429.727353 C751.62709,429.727353 757.080035,427.792436 760.949865,423.922603 C764.643797,420.052771 766.578715,414.775726 766.578715,408.091469 L766.578715,404.397537 L766.402816,404.573439 Z M702.198768,359.190853 C708.531223,353.210203 715.743182,348.812665 724.010555,345.822339 C732.277922,342.832014 740.897098,341.424802 749.516273,341.424802 C758.487246,341.424802 766.051014,342.480211 772.207564,344.76693 C778.364115,347.05365 783.465258,350.395778 787.159189,354.969217 C791.029025,359.542656 793.843447,365.347406 795.602461,372.383465 C797.36148,379.419525 798.240984,387.862797 798.240984,397.537379 L798.240984,451.011434 L766.226912,451.011434 L766.226912,439.753738 L765.523307,439.753738 C762.884783,444.151275 758.66315,447.493404 753.210205,449.956025 C747.757254,452.418646 741.776607,453.649956 735.444152,453.649956 C731.222514,453.649956 726.824977,453.122252 722.251541,451.890941 C717.6781,450.659631 713.456467,448.900615 709.762535,446.262093 C706.068604,443.799472 702.902373,440.281443 700.439754,436.059806 C697.977135,431.838171 696.745822,426.561126 696.745822,420.228672 C696.745822,412.489006 698.856639,406.332454 703.078277,401.583114 C707.29991,396.833773 712.576957,393.315743 719.261215,390.677221 C725.945473,388.038698 733.157432,386.455585 741.424805,385.576078 C749.516273,384.69657 757.431838,384.344767 765.171504,384.344767 L765.171504,382.585752 C765.171504,377.308707 763.236586,373.438874 759.542654,370.976254 C755.848723,368.513633 751.275287,367.282322 745.822342,367.282322 C740.897098,367.282322 735.971854,368.337731 731.398418,370.448549 C726.824977,372.559367 722.779242,375.197889 719.613018,378.188215 L701.846965,359.190853 L702.198768,359.190853 Z" id="Shape"></path>
                                    <path d="M886.895338,375.901495 C884.080916,373.262972 880.738787,370.976254 876.868951,369.041337 C872.999121,367.106421 868.953387,366.226913 864.731748,366.226913 C861.389619,366.226913 858.399299,366.930519 855.584871,368.161829 C852.770449,369.39314 851.363238,371.67986 851.363238,374.846086 C851.363238,377.836412 852.946348,379.94723 855.936674,381.17854 C858.927,382.409851 863.852244,383.817063 870.7124,385.400176 C874.758135,386.279684 878.803869,387.510994 882.849604,389.094107 C886.895338,390.677221 890.58927,392.788039 893.755494,395.25066 C897.097623,397.889182 899.736146,400.879508 901.671064,404.573439 C903.605982,408.26737 904.661391,412.664907 904.661391,417.766051 C904.661391,424.450308 903.25418,430.079156 900.615656,434.652595 C897.977133,439.226033 894.459105,443.095866 890.061568,445.91029 C885.664025,448.724714 880.914686,450.835532 875.46174,452.066842 C870.008795,453.298153 864.731748,454.001759 859.278803,454.001759 C850.659633,454.001759 842.040457,452.594547 833.77309,449.780123 C825.505717,446.965699 818.469656,442.919965 813.016711,437.467018 L832.717676,416.710642 C835.883906,420.052771 839.753736,423.043096 844.151273,425.329815 C848.724715,427.616535 853.474055,428.671944 858.575197,428.671944 C861.389619,428.671944 864.204047,427.968338 867.018469,426.561126 C869.832896,425.153914 871.240107,422.867194 871.240107,419.349165 C871.240107,416.007036 869.481088,413.720317 866.138965,412.137203 C862.796836,410.55409 857.343885,408.970976 850.131926,407.211962 C846.437994,406.332454 842.744062,405.277045 839.050131,403.869833 C835.356199,402.462621 832.01407,400.527704 829.199648,398.065083 C826.209322,395.602463 823.922602,392.612137 821.987689,389.094107 C820.052771,385.576078 819.173262,381.354442 819.173262,376.253298 C819.173262,369.920844 820.580473,364.467898 823.218996,359.894459 C825.85752,355.496921 829.375547,351.80299 833.597186,348.988566 C837.818824,346.174143 842.568164,344.063324 847.845205,342.656112 C853.122252,341.248901 858.223395,340.721196 863.324537,340.721196 C871.240107,340.721196 878.979773,341.952507 886.719439,344.415128 C894.283201,346.877749 900.791555,350.57168 906.068602,355.672823 L886.895338,375.549692 L886.895338,375.901495 Z" id="Shape"></path>
                                    <path d="M1004.04574,397.361477 C1004.04574,394.019349 1003.51803,390.677221 1002.28672,387.335092 C1001.05541,383.992964 999.472295,381.17854 997.361479,378.715919 C995.250662,376.253298 992.612139,374.14248 989.445908,372.559367 C986.279684,370.976254 982.761656,370.272647 978.540018,370.272647 C974.494283,370.272647 970.800352,370.976254 967.634127,372.559367 C964.467896,374.14248 962.005277,376.077397 959.894461,378.715919 C957.783639,381.17854 956.200529,383.992964 955.145121,387.335092 C954.089707,390.677221 953.562006,394.019349 953.562006,397.361477 C953.562006,400.703606 954.089707,404.045735 955.145121,407.387863 C956.200529,410.729991 957.783639,413.544415 959.894461,416.182938 C962.005277,418.82146 964.643801,420.932278 967.810025,422.515392 C970.976256,424.098505 974.494283,424.802111 978.715922,424.802111 C982.761656,424.802111 986.455582,424.098505 989.621812,422.515392 C992.788037,420.932278 995.426561,418.82146 997.537377,416.182938 C999.648199,413.544415 1001.23131,410.55409 1002.28672,407.387863 C1003.34213,404.045735 1003.86983,400.703606 1003.86983,397.361477 L1004.04574,397.361477 Z M1037.81882,397.361477 C1037.81882,405.980651 1036.23571,413.896218 1033.06948,420.932278 C1029.90325,427.968338 1025.68162,433.948989 1020.22867,438.87423 C1014.77573,443.799472 1008.61917,447.669305 1001.40721,450.307828 C994.371152,452.94635 986.631486,454.353562 978.540018,454.353562 C970.624453,454.353562 963.060686,452.94635 955.848727,450.307828 C948.636762,447.669305 942.480211,443.799472 937.027266,438.87423 C931.750219,433.948989 927.528586,427.968338 924.362355,420.932278 C921.196131,413.896218 919.613016,405.980651 919.613016,397.361477 C919.613016,388.742304 921.196131,380.826737 924.362355,373.966579 C927.528586,366.930519 931.750219,361.125769 937.027266,356.200528 C942.304312,351.275286 948.636762,347.581355 955.848727,345.118734 C963.060686,342.480211 970.624453,341.248901 978.540018,341.248901 C986.631486,341.248901 994.195248,342.480211 1001.40721,345.118734 C1008.44327,347.757256 1014.77573,351.451187 1020.22867,356.200528 C1025.68162,360.949868 1029.90325,366.930519 1033.06948,373.966579 C1036.23571,381.002638 1037.81882,388.742304 1037.81882,397.361477 Z" id="Shape"></path>
                                    <path d="M1129.6394,450.835532 L1129.6394,392.788039 C1129.6394,389.797713 1129.4635,386.98329 1128.93579,384.168865 C1128.40809,381.530343 1127.70449,379.067722 1126.47318,376.956904 C1125.41777,374.846086 1123.65875,373.262972 1121.72384,372.031662 C1119.61302,370.800352 1116.9745,370.272647 1113.98417,370.272647 C1110.81794,370.272647 1108.17942,370.800352 1105.7168,372.031662 C1103.43008,373.262972 1101.49516,374.846086 1099.91205,377.132805 C1098.32893,379.243624 1097.09763,381.706245 1096.39402,384.520668 C1095.69042,387.335092 1095.16271,390.149516 1095.16271,393.139842 L1095.16271,450.659631 L1059.98241,450.659631 L1059.98241,344.415128 L1093.9314,344.415128 L1093.9314,359.190853 L1094.2832,359.190853 C1095.51451,356.904134 1097.27353,354.617414 1099.38435,352.506596 C1101.49516,350.219877 1103.78188,348.460862 1106.59631,346.877749 C1109.41073,345.294635 1112.40105,344.063324 1115.74318,343.007916 C1119.08531,341.952507 1122.42744,341.424802 1126.12137,341.424802 C1133.15743,341.424802 1139.31398,342.656112 1144.23923,345.294635 C1149.16447,347.933157 1153.2102,351.099384 1156.37643,355.145119 C1159.36675,359.190853 1161.65347,363.764292 1163.06068,369.041337 C1164.4679,374.318382 1165.17151,379.595426 1165.17151,384.872471 L1165.17151,450.483729 L1129.9912,450.483729 L1129.6394,450.835532 Z" id="Shape"></path>
                                    <path d="M1253.82586,375.901495 C1251.01143,373.262972 1247.6693,370.976254 1243.79947,369.041337 C1239.92964,367.106421 1235.8839,366.226913 1231.66227,366.226913 C1228.32014,366.226913 1225.32981,366.930519 1222.51539,368.161829 C1219.70096,369.39314 1218.29375,371.67986 1218.29375,374.846086 C1218.29375,377.836412 1219.87687,379.94723 1222.8672,381.17854 C1225.85752,382.409851 1230.78276,383.817063 1237.64292,385.400176 C1241.68866,386.279684 1245.73439,387.510994 1249.78012,389.094107 C1253.82586,390.677221 1257.51979,392.788039 1260.68602,395.25066 C1264.02814,397.889182 1266.66667,400.879508 1268.60159,404.573439 C1270.5365,408.26737 1271.59191,412.664907 1271.59191,417.766051 C1271.59191,424.450308 1270.1847,430.079156 1267.54617,434.652595 C1264.90765,439.226033 1261.38962,443.095866 1256.99208,445.91029 C1252.59455,448.724714 1247.84521,450.835532 1242.39226,452.066842 C1236.93932,453.298153 1231.66227,454.001759 1226.20932,454.001759 C1217.59015,454.001759 1208.97098,452.594547 1200.70361,449.780123 C1192.43624,446.965699 1185.40018,442.919965 1179.94723,437.467018 L1199.6482,416.710642 C1202.81442,420.052771 1206.68426,423.043096 1211.08179,425.329815 C1215.65523,427.616535 1220.40458,428.671944 1225.50572,428.671944 C1228.32014,428.671944 1231.13456,427.968338 1233.94899,426.561126 C1236.76341,425.153914 1238.17062,422.867194 1238.17062,419.349165 C1238.17062,416.007036 1236.41161,413.720317 1233.06948,412.137203 C1229.72735,410.55409 1224.27441,408.970976 1217.06245,407.211962 C1213.36852,406.332454 1209.67458,405.277045 1205.98065,403.869833 C1202.28672,402.462621 1198.94459,400.527704 1196.13017,398.065083 C1193.13984,395.602463 1190.85312,392.612137 1188.91821,389.094107 C1186.98329,385.576078 1186.10378,381.354442 1186.10378,376.253298 C1186.10378,369.920844 1187.51099,364.467898 1190.14952,359.894459 C1192.78804,355.496921 1196.30607,351.80299 1200.52771,348.988566 C1204.74934,346.174143 1209.49868,344.063324 1214.77573,342.656112 C1220.05277,341.248901 1225.15392,340.721196 1230.25506,340.721196 C1238.17062,340.721196 1245.91029,341.952507 1253.64996,344.415128 C1261.21372,346.877749 1267.72208,350.57168 1272.99912,355.672823 L1253.82586,375.549692 L1253.82586,375.901495 Z" id="Shape"></path>
                                    <path d="M1362.35708,452.94635 L1362.35708,423.218997 L1421.28408,369.920844 C1424.97801,366.402814 1427.96834,362.708883 1430.25506,359.014952 C1432.54178,355.32102 1433.59719,351.275286 1433.59719,346.701847 C1433.59719,341.248901 1431.83817,337.027264 1428.49604,333.685136 C1425.15391,330.343008 1420.58047,328.583993 1414.77572,328.583993 C1408.79507,328.583993 1403.86983,330.694811 1400.1759,334.916447 C1396.48197,339.138083 1394.19525,344.591029 1393.49164,351.451187 L1359.19085,346.701847 C1360.07036,338.962181 1362.18118,332.102023 1365.52331,326.121372 C1368.86544,320.140721 1373.08707,315.039578 1378.18822,310.817942 C1383.28936,306.596306 1389.09411,303.430079 1395.77837,301.14336 C1402.46262,298.85664 1409.32278,297.801231 1416.71064,297.801231 C1423.7467,297.801231 1430.43096,298.680739 1436.93931,300.615655 C1443.44767,302.550572 1449.25242,305.364996 1454.35356,309.058927 C1459.45471,312.92876 1463.50044,317.6781 1466.66667,323.48285 C1469.65699,329.287599 1471.24011,336.147757 1471.24011,343.887423 C1471.24011,349.34037 1470.5365,354.08971 1469.12929,358.487247 C1467.72207,362.884785 1465.78716,366.930519 1463.32454,370.62445 C1460.86192,374.318382 1458.0475,377.836412 1454.88127,381.002638 C1451.71504,384.168865 1448.37291,387.335092 1445.03078,390.501319 L1410.02638,421.635884 L1471.76781,421.635884 L1471.76781,452.770448 L1362.53298,452.770448 L1362.35708,452.94635 Z" id="Shape"></path>
                                    <path d="M1616.18294,423.5708 L1595.42656,423.5708 L1595.42656,452.94635 L1562.00528,452.94635 L1562.00528,423.5708 L1490.94107,423.5708 L1490.94107,393.491645 L1552.33069,302.022867 L1595.25066,302.022867 L1595.25066,394.547054 L1616.18294,394.547054 L1616.18294,423.5708 Z M1562.18118,338.610378 L1561.47757,338.610378 L1525.59367,394.547054 L1562.00528,394.547054 L1562.00528,338.610378 L1562.18118,338.610378 Z" id="Shape"></path>
                                    <path d="M1029.72735,223.922603 C1029.72735,223.570801 1029.90325,223.043096 1029.90325,222.691293 C1029.90325,101.671064 933.15743,2.99032542 812.840807,0 L801.231311,0 C681.090592,3.16622691 584.168865,101.846965 584.168865,222.691293 C584.168865,223.218997 584.168865,223.570801 584.344767,224.098505 C584.344767,224.626209 584.168865,224.978012 584.168865,225.505717 C584.168865,230.782762 588.566402,235.180299 593.843449,235.180299 L654.353561,235.180299 C659.630607,235.180299 664.028145,230.782762 664.028145,225.505717 L664.028145,189.094107 L746.174145,127.528584 L783.465258,155.496922 L770.800354,164.995603 C770.624449,165.171504 770.448551,165.171504 770.448551,165.347405 C770.096748,165.523307 769.920844,165.87511 769.569041,166.051011 C769.393143,166.226913 769.217238,166.578716 769.041334,166.754617 C768.865436,166.930519 768.689531,167.282322 768.513633,167.634125 C768.337729,167.810026 768.16183,168.161829 767.985926,168.513632 C767.810027,168.865436 767.810027,169.041337 767.634123,169.39314 C767.458225,169.744943 767.458225,169.920844 767.458225,170.272647 C767.458225,170.62445 767.28232,170.800352 767.28232,171.152155 C767.28232,171.503958 767.28232,171.855761 767.106422,172.207564 L767.106422,172.735268 L767.106422,210.378188 C767.106422,215.655233 771.503959,220.05277 776.781,220.05277 C782.058047,220.05277 786.455584,215.655233 786.455584,210.378188 L786.455584,177.484608 L868.601584,115.919085 L950.747584,177.484608 L950.747584,225.505717 L950.747584,225.505717 C950.747584,230.782762 955.145121,235.180299 960.422162,235.180299 L1020.93228,235.180299 C1026.20932,235.180299 1030.60686,230.782762 1030.60686,225.505717 C1030.60686,224.978012 1030.60686,224.450308 1030.43096,223.922603 L1029.72735,223.922603 Z" id="Shape"></path>
                                </g>
                            </g>
                        </g>
                    </g>
                </g>
            </g>
        </g>
    </g>
</svg>